<?xml version="1.0" standalone="no"?>
<!DOCTYPE svg PUBLIC "-//W3C//DTD SVG 20010904//EN"
 "http://www.w3.org/TR/2001/REC-SVG-20010904/DTD/svg10.dtd">
<svg version="1.0" xmlns="http://www.w3.org/2000/svg"
 width="345.000000pt" height="395.000000pt" viewBox="0 0 345.000000 395.000000"
 preserveAspectRatio="xMidYMid meet">
<metadata>
Created by potrace 1.16, written by Peter Selinger 2001-2019
</metadata>
<g transform="translate(0.000000,395.000000) scale(0.100000,-0.100000)"
fill="#000000" stroke="none">
<path d="M1660 3729 c-79 -43 -126 -93 -169 -180 -49 -97 -58 -164 -36 -279 9
-47 22 -124 29 -173 7 -48 16 -91 20 -95 9 -9 492 -10 501 0 10 9 53 252 60
338 11 122 -37 240 -137 337 -93 90 -172 105 -268 52z m203 -47 c57 -40 98
-92 136 -171 39 -83 46 -142 27 -217 -8 -32 -20 -99 -27 -149 -19 -139 -14
-133 -101 -122 -40 5 -135 6 -212 3 -157 -7 -166 -4 -166 55 0 21 -9 87 -21
146 -25 130 -26 185 -3 244 40 101 152 231 211 244 15 4 33 8 38 9 23 6 75
-13 118 -42z"/>
<path d="M1487 2886 c-109 -39 -213 -105 -308 -194 -98 -93 -188 -217 -214
-299 -35 -107 -1 -159 165 -250 137 -75 193 -97 233 -89 44 8 130 68 257 180
l102 90 -4 230 c-3 256 -7 271 -71 320 -49 38 -82 40 -160 12z m149 -49 c34
-30 43 -81 43 -257 -1 -207 -7 -242 -55 -291 -44 -47 -204 -173 -245 -194 -31
-16 -59 -11 -134 28 -81 41 -208 117 -232 140 -66 60 13 234 174 388 175 167
374 250 449 186z"/>
<path d="M1881 2883 c-19 -10 -43 -29 -53 -43 -29 -40 -41 -158 -34 -320 10
-215 3 -198 120 -302 130 -115 209 -168 250 -168 38 0 187 70 287 135 115 74
134 136 79 254 -51 107 -176 248 -310 349 -126 94 -267 133 -339 95z m220 -71
c163 -81 317 -232 394 -386 41 -81 45 -127 12 -160 -27 -27 -131 -88 -250
-147 l-87 -44 -36 20 c-50 27 -243 184 -268 218 -20 27 -21 42 -21 264 l0 235
29 25 c44 38 117 30 227 -25z"/>
<path d="M907 2735 c-320 -89 -525 -268 -607 -530 -40 -128 -37 -411 5 -512
22 -51 57 -46 95 14 17 26 30 51 30 55 0 5 16 33 35 63 22 34 68 81 127 128
111 89 194 175 233 240 15 27 44 99 65 160 44 133 66 177 134 275 49 71 50 74
35 100 -19 35 -44 36 -152 7z m120 -30 c2 -6 -15 -35 -38 -65 -57 -77 -94
-153 -135 -280 -44 -138 -90 -207 -202 -307 -157 -140 -229 -217 -261 -280
-17 -34 -35 -64 -40 -67 -23 -15 -36 72 -36 249 0 158 3 188 22 250 60 189
217 354 417 438 84 36 223 77 250 74 11 -1 21 -7 23 -12z"/>
<path d="M2451 2731 c-13 -24 -2 -52 54 -130 46 -65 71 -117 111 -234 64 -185
143 -294 291 -403 85 -64 128 -114 186 -220 35 -64 49 -80 70 -82 19 -2 30 4
44 24 16 25 18 53 18 274 l0 245 -47 95 c-60 119 -120 195 -205 259 -127 95
-322 177 -444 188 -61 5 -68 4 -78 -16z m179 -43 c289 -78 505 -283 556 -528
25 -122 16 -422 -14 -452 -10 -10 -30 17 -57 77 -12 26 -82 103 -196 215 -97
96 -189 193 -203 216 -15 22 -45 97 -67 165 -37 114 -86 212 -140 281 -13 15
-19 33 -16 42 7 18 12 18 137 -16z"/>
<path d="M1654 2154 c-124 -89 -186 -146 -205 -189 -16 -34 -19 -67 -19 -225
0 -231 3 -238 125 -342 101 -85 159 -126 193 -135 31 -7 135 63 242 164 101
95 105 111 97 351 -5 133 -10 180 -22 198 -40 61 -269 234 -310 234 -13 0 -58
-25 -101 -56z m198 -36 c45 -34 108 -87 139 -117 l56 -56 7 -123 c4 -68 4
-160 1 -205 l-7 -82 -70 -67 c-91 -88 -214 -182 -230 -175 -19 7 -166 127
-224 184 -61 59 -64 73 -64 302 l0 155 78 76 c82 82 196 170 217 170 7 0 51
-28 97 -62z"/>
<path d="M925 2106 c-82 -36 -109 -119 -109 -326 0 -120 4 -159 22 -225 37
-128 88 -185 167 -185 32 0 145 56 252 126 74 47 83 57 94 96 16 61 8 300 -11
323 -40 48 -318 205 -362 205 -13 -1 -36 -7 -53 -14z m141 -61 c68 -30 203
-117 234 -150 24 -26 25 -32 25 -162 l0 -135 -44 -40 c-58 -51 -241 -142 -286
-142 -61 0 -105 62 -126 178 -17 102 -8 381 15 427 30 64 80 71 182 24z"/>
<path d="M2492 2105 c-68 -21 -260 -135 -297 -176 -23 -26 -36 -52 -41 -84 -9
-65 1 -244 16 -276 23 -50 279 -199 340 -199 111 0 175 128 187 370 9 176 -20
310 -76 349 -37 27 -80 32 -129 16z m117 -54 c35 -35 46 -97 46 -271 0 -144
-3 -174 -23 -235 -24 -76 -34 -92 -72 -118 -34 -24 -61 -21 -134 12 -68 31
-202 118 -226 146 -12 14 -15 48 -15 144 0 152 5 162 105 227 164 106 275 139
319 95z"/>
<path d="M1298 1416 c-57 -21 -183 -102 -217 -141 -37 -43 -41 -96 -12 -153
29 -57 146 -186 274 -302 167 -151 221 -174 305 -131 59 30 66 53 70 249 4
206 -2 227 -101 313 -184 162 -243 193 -319 165z m236 -143 c155 -124 158
-132 154 -340 -3 -154 -4 -163 -26 -186 -61 -65 -113 -57 -225 33 -80 64 -240
226 -304 307 -90 114 -63 168 132 269 l86 44 37 -19 c20 -11 86 -59 146 -108z"/>
<path d="M2127 1416 c-73 -26 -277 -196 -308 -258 -16 -32 -22 -66 -26 -167
-9 -205 18 -280 111 -316 42 -16 46 -16 87 2 62 28 177 123 299 249 147 151
175 193 175 266 0 51 -4 61 -33 91 -18 18 -67 54 -110 79 -69 41 -91 51 -142
63 -8 2 -32 -2 -53 -9z m146 -68 c94 -49 152 -97 161 -134 4 -15 -1 -41 -12
-67 -37 -82 -283 -334 -397 -406 -65 -41 -115 -42 -156 -2 l-29 29 1 194 0
193 111 90 c139 113 187 145 216 145 13 0 61 -19 105 -42z"/>
<path d="M963 1010 c-38 -23 -82 -81 -126 -165 l-32 -60 0 -175 c0 -198 6
-219 91 -357 51 -82 88 -113 134 -113 44 0 76 39 100 124 38 133 84 240 137
319 29 44 53 86 53 94 0 35 -40 92 -124 181 -85 88 -179 172 -194 172 -4 0
-21 -9 -39 -20z m133 -102 c123 -127 184 -200 184 -222 0 -12 -14 -41 -31 -66
-55 -81 -108 -197 -138 -300 -46 -159 -74 -182 -135 -116 -35 39 -112 186
-133 255 -20 69 -17 236 7 313 31 101 114 218 155 218 6 0 47 -37 91 -82z"/>
<path d="M2475 1011 c-16 -10 -83 -72 -147 -139 -91 -93 -118 -128 -123 -156
-8 -42 4 -83 38 -128 14 -18 41 -64 60 -103 33 -67 47 -107 82 -239 21 -75 51
-106 103 -106 34 0 45 6 77 41 20 23 60 89 88 147 l52 106 0 171 0 172 -42 85
c-41 82 -115 168 -145 168 -7 0 -26 -8 -43 -19z m67 -33 c33 -26 98 -132 120
-196 18 -53 23 -88 23 -167 -1 -116 -22 -193 -88 -315 -56 -103 -77 -130 -103
-130 -36 0 -60 34 -85 123 -32 116 -68 202 -121 289 -65 107 -65 107 -16 169
59 75 224 239 241 239 7 0 20 -6 29 -12z"/>
<path d="M1685 621 c-38 -10 -68 -26 -83 -44 -10 -11 -3 -36 32 -116 51 -115
78 -157 107 -166 46 -15 99 55 144 189 27 81 25 105 -14 126 -26 13 -149 21
-186 11z m169 -47 c22 -9 20 -23 -15 -115 -66 -172 -101 -167 -174 26 -30 80
-30 82 -7 88 26 7 178 8 196 1z"/>
</g>
</svg>
