<?xml version="1.0" standalone="no"?>
<!DOCTYPE svg PUBLIC "-//W3C//DTD SVG 20010904//EN"
 "http://www.w3.org/TR/2001/REC-SVG-20010904/DTD/svg10.dtd">
<svg version="1.0" xmlns="http://www.w3.org/2000/svg"
 width="302.000000pt" height="373.000000pt" viewBox="0 0 302.000000 373.000000"
 preserveAspectRatio="xMidYMid meet">
<metadata>
Created by potrace 1.16, written by Peter Selinger 2001-2019
</metadata>
<g transform="translate(0.000000,373.000000) scale(0.100000,-0.100000)"
fill="#000000" stroke="none">
<path d="M1450 3632 c-56 -27 -144 -123 -179 -194 -48 -97 -49 -146 -11 -347
l33 -171 231 2 230 3 13 80 c7 44 23 121 34 171 18 79 19 99 9 148 -35 171
-180 327 -301 326 -13 0 -40 -8 -59 -18z"/>
<path d="M1210 2758 c-157 -70 -302 -195 -398 -343 -68 -103 -90 -170 -71
-210 19 -39 109 -102 246 -171 107 -54 113 -56 148 -44 36 12 200 136 263 200
19 18 38 43 42 55 15 40 23 209 15 340 -7 125 -8 128 -39 163 -48 51 -106 54
-206 10z"/>
<path d="M1643 2770 c-47 -28 -54 -71 -54 -295 0 -146 4 -202 15 -228 14 -36
161 -172 245 -228 63 -41 105 -39 206 12 115 58 216 129 238 167 25 42 15 85
-44 188 -87 152 -253 298 -419 370 -89 39 -141 43 -187 14z"/>
<path d="M690 2629 c-340 -89 -541 -270 -612 -551 -18 -70 -20 -102 -16 -237
5 -161 20 -236 48 -236 8 0 31 31 52 69 53 96 97 147 202 231 165 131 202 182
275 387 26 73 67 165 91 203 88 143 84 136 69 146 -18 11 -21 11 -109 -12z"/>
<path d="M2240 2627 c0 -7 29 -61 64 -121 44 -73 76 -143 100 -218 56 -173
105 -241 283 -392 112 -95 130 -116 192 -223 23 -40 46 -73 51 -73 45 0 69
319 35 474 -46 217 -202 391 -445 496 -142 62 -280 90 -280 57z"/>
<path d="M1461 2072 c-95 -64 -220 -175 -230 -205 -7 -17 -11 -116 -11 -233
l0 -202 88 -76 c120 -104 191 -156 212 -156 23 0 158 100 239 176 57 55 62 63
71 119 23 139 6 334 -32 391 -39 58 -243 214 -279 214 -9 0 -35 -13 -58 -28z"/>
<path d="M695 1991 c-46 -21 -61 -45 -75 -120 -15 -79 -12 -305 4 -382 25
-115 79 -189 139 -189 30 0 146 57 234 116 107 71 113 84 113 243 0 114 -1
121 -26 150 -40 48 -300 202 -339 201 -5 0 -28 -9 -50 -19z"/>
<path d="M2242 1985 c-90 -42 -235 -131 -266 -164 -27 -28 -30 -39 -38 -140
-12 -148 -3 -179 65 -230 63 -47 199 -124 248 -142 106 -36 175 81 186 316 6
135 -9 286 -32 321 -15 23 -50 45 -90 58 -12 3 -42 -5 -73 -19z"/>
<path d="M995 1265 c-44 -25 -96 -61 -115 -81 -30 -30 -35 -41 -35 -83 0 -65
28 -104 195 -272 160 -161 248 -229 295 -229 38 0 95 35 112 70 16 32 18 362
3 391 -15 27 -227 207 -272 230 -58 30 -94 24 -183 -26z"/>
<path d="M1847 1276 c-68 -48 -206 -166 -227 -196 -26 -38 -31 -72 -31 -220 0
-167 10 -214 54 -240 77 -48 146 -8 359 203 166 165 208 222 208 281 0 34 -6
46 -48 85 -60 58 -181 121 -231 120 -24 0 -52 -11 -84 -33z"/>
<path d="M721 885 c-79 -72 -141 -233 -141 -370 0 -142 61 -301 151 -397 42
-44 51 -50 76 -44 36 9 63 41 63 75 0 61 70 232 149 366 22 38 41 79 41 91 0
11 -29 54 -63 95 -72 84 -212 219 -227 219 -5 0 -27 -16 -49 -35z"/>
<path d="M2177 833 c-127 -125 -187 -198 -187 -231 0 -15 20 -60 44 -99 69
-110 91 -159 126 -278 42 -139 46 -145 92 -145 31 0 42 7 73 43 78 90 145 277
145 401 0 83 -24 177 -63 250 -34 64 -105 146 -127 146 -7 0 -53 -39 -103 -87z"/>
<path d="M1447 490 c-20 -4 -40 -9 -43 -12 -11 -12 9 -79 49 -159 35 -70 46
-84 68 -87 34 -4 58 25 99 124 36 88 36 125 0 135 -32 9 -125 9 -173 -1z"/>
</g>
</svg>
